<svg width="16" height="16" viewBox="0 0 16 16" fill="none" xmlns="http://www.w3.org/2000/svg">
<path fill-rule="evenodd" clip-rule="evenodd" d="M6.22 4.22C6.36063 4.07955 6.55125 4.00066 6.75 4.00066C6.94875 4.00066 7.13937 4.07955 7.28 4.22L10.53 7.47C10.6705 7.61062 10.7493 7.80125 10.7493 8C10.7493 8.19875 10.6705 8.38937 10.53 8.53L7.28 11.78C7.13783 11.9125 6.94978 11.9846 6.75548 11.9812C6.56118 11.9777 6.37579 11.899 6.23838 11.7616C6.10097 11.6242 6.02225 11.4388 6.01883 11.2445C6.0154 11.0502 6.08752 10.8622 6.22 10.72L8.94 8L6.22 5.28C6.07955 5.13937 6.00066 4.94875 6.00066 4.75C6.00066 4.55125 6.07955 4.36062 6.22 4.22Z" fill="black"/>
</svg>
